# xmcd
#
# Track frame offsets:
#	150
#	13442
#	24810
#	39325
#	54145
#	64564
#	81427
#	91140
#	100575
#	116812
#	131667
#	142945
#	156852
#
# Disc length: 2190 seconds
#
# Revision: 0
# Processed by: cddbd v1.5PL3 Copyright (c) Steve Scherf et al.
# Submitted via: EasyCDDAExtractor 5.0.4.1
#
DISCID=9b088c0d
DTITLE=Van Dango - Alt på et bræt
DYEAR=1980
DGENRE=Blues
TTITLE0=Ulvetider
TTITLE1=Spillemandens blues
TTITLE2=På en sømands grav
TTITLE3=Museet København
TTITLE4=Jeg tror jeg ved
TTITLE5=Våde hund
TTITLE6=Lene alene
TTITLE7=Pyromanvalsen
TTITLE8=Byens vilde væsner
TTITLE9=Var det virkelig dig
TTITLE10=Stået af
TTITLE11=Svendborg rag
TTITLE12=Køb os på kredit
EXTD=
EXTT0=
EXTT1=
EXTT2=
EXTT3=
EXTT4=
EXTT5=
EXTT6=
EXTT7=
EXTT8=
EXTT9=
EXTT10=
EXTT11=
EXTT12=
PLAYORDER=
